<svg id="Layer_1" data-name="Layer 1" xmlns="http://www.w3.org/2000/svg" viewBox="0 0 177.7 118.77"><defs><style>.cls-1{fill:#005078;}.cls-2{fill:#fff;}.cls-3{fill:#00bee6;}</style></defs><title>WEB CLIMA</title><path class="cls-1" d="M132.79,34.89H121.91V27.61a13,13,0,0,0-.35-3.95,1.5,1.5,0,0,0-1.54-.79,1.61,1.61,0,0,0-1.71,1A14.54,14.54,0,0,0,118,28V47.39a13.6,13.6,0,0,0,.36,4,1.55,1.55,0,0,0,1.63.93,1.53,1.53,0,0,0,1.59-.93,15.13,15.13,0,0,0,.38-4.38V41.73h10.88v1.63q0,6.51-.92,9.22a9.42,9.42,0,0,1-4.06,4.76,13.9,13.9,0,0,1-7.74,2,16,16,0,0,1-7.88-1.73,8.39,8.39,0,0,1-4.11-4.79,31.49,31.49,0,0,1-1-9.21V31.42a55.73,55.73,0,0,1,.31-6.78,9.62,9.62,0,0,1,1.85-4.36A10.4,10.4,0,0,1,113.49,17a17.47,17.47,0,0,1,14.21.66,8.85,8.85,0,0,1,4.1,4.63,27.65,27.65,0,0,1,1,8.63Z"/><path class="cls-1" d="M147.57,16.67V50.13h6.61v8.38H136.69V16.67Z"/><path class="cls-1" d="M167.7,16.67V58.51H156.82V16.67Z"/><path class="cls-1" d="M141,65.92v41.84h-9.51V79.51l-3.79,28.25H120.9l-4-27.6,0,27.6h-9.51V65.92h14.08c.42,2.51.85,5.48,1.29,8.89l1.55,10.65,2.5-19.54Z"/><path class="cls-1" d="M164.13,65.92l6.22,41.84H159.23l-.58-7.52h-3.9l-.65,7.52H142.85l5.55-41.84Zm-5.77,26.9q-.83-7.11-1.66-17.57-1.66,12-2.08,17.57Z"/><path class="cls-2" d="M52.48,113.85h0a45.13,45.13,0,0,1-31.91-77L52.48,4.92l31.91,31.9a45.12,45.12,0,0,1-31.91,77Zm0-98.1L26,42.24a37.46,37.46,0,1,0,53,0Z"/><path class="cls-3" d="M52.48,98.5A29.44,29.44,0,0,1,31.66,48.23L52.48,27.41,73.3,48.23A29.45,29.45,0,0,1,52.48,98.5Zm0-60.26L37.07,53.65a21.79,21.79,0,1,0,30.81,0Z"/><path class="cls-2" d="M52.48,84.74A15.09,15.09,0,0,1,41.81,59L52.48,48.31,63.15,59A15.09,15.09,0,0,1,52.48,84.74Zm0-25.59L47.23,64.4a7.42,7.42,0,1,0,10.5,10.5,7.41,7.41,0,0,0,0-10.5Z"/></svg>