<svg id="Layer_1" data-name="Layer 1" xmlns="http://www.w3.org/2000/svg" viewBox="0 0 178.7 178.71"><defs><style>.cls-1{fill:#ffc800;}.cls-2{fill:#ffdc00;}.cls-3{fill:#fff;}</style></defs><title>SOLEADO</title><path class="cls-1" d="M146.63,89.36A57.28,57.28,0,1,1,89.35,32.08,57.29,57.29,0,0,1,146.63,89.36Z"/><path class="cls-1" d="M137.78,130.06c2.83-2.71,8.79-12.31,11-19a93,93,0,0,1,17.91,23.05A93,93,0,0,1,137.78,130.06Z"/><path class="cls-1" d="M110.91,148.84a60.71,60.71,0,0,0,10-4.63c5.24-3.48,1.47-.49,9.06-6.33a97.75,97.75,0,0,1,4,28.94A96.64,96.64,0,0,1,110.91,148.84Z"/><path class="cls-1" d="M78.29,151.71c13.92,1.68,14.65.6,18.58.52,2-.28,3.39-.57,3.39-.57a93.73,93.73,0,0,1-11,27.05A94.47,94.47,0,0,1,78.29,151.71Z"/><path class="cls-1" d="M48.64,137.79c2.72,2.83,12.32,8.79,19,11a92.73,92.73,0,0,1-23,17.92A93.49,93.49,0,0,1,48.64,137.79Z"/><path class="cls-1" d="M29.87,110.92a60.71,60.71,0,0,0,4.63,10c3.48,5.25.5,1.47,6.32,9.06a97.67,97.67,0,0,1-28.93,4A96.64,96.64,0,0,1,29.87,110.92Z"/><path class="cls-1" d="M27,78.3c-1,8-.78,5-.91,11-.17,2.76.35,5.5.39,7.57.28,2.05.57,3.39.57,3.39a93.12,93.12,0,0,1-27-11A94.76,94.76,0,0,1,27,78.3Z"/><path class="cls-1" d="M40.92,48.65a17.84,17.84,0,0,0-2.15,2.7,60,60,0,0,0-8.83,16.3A92.5,92.5,0,0,1,12,44.6,92.68,92.68,0,0,1,40.92,48.65Z"/><path class="cls-1" d="M67.79,29.89a64.48,64.48,0,0,0-19.08,11,97.78,97.78,0,0,1-4-28.94A97,97,0,0,1,67.79,29.89Z"/><path class="cls-1" d="M100.41,27c-13.92-1.68-14.65-.6-18.58-.52-2,.28-3.39.57-3.39.57a92.34,92.34,0,0,1,11-27A95.17,95.17,0,0,1,100.41,27Z"/><path class="cls-1" d="M130.05,40.93c-2.68-2.8-12.26-8.78-19-11A93.51,93.51,0,0,1,134.11,12,93.17,93.17,0,0,1,130.05,40.93Z"/><path class="cls-1" d="M148.83,67.8a60.71,60.71,0,0,0-4.63-10c-3.48-5.24-.5-1.47-6.33-9.06a97.75,97.75,0,0,1,28.94-4A96.93,96.93,0,0,1,148.83,67.8Z"/><path class="cls-1" d="M151.7,100.42c1-8,.78-5,.91-11,.17-2.76-.35-5.5-.39-7.57-.28-2-.57-3.39-.57-3.39a93.62,93.62,0,0,1,27,11A95.17,95.17,0,0,1,151.7,100.42Z"/><path class="cls-1" d="M146.62,89.35a57.25,57.25,0,0,1-57.28,57.28h-.08a57.28,57.28,0,0,1,0-114.56h.08A57.27,57.27,0,0,1,146.62,89.35Z"/><path class="cls-1" d="M166.66,134.1a91.65,91.65,0,0,1-28.86-4c2.82-2.71,8.77-12.29,10.95-19A92.31,92.31,0,0,1,166.66,134.1Z"/><path class="cls-1" d="M134,166.83a96.78,96.78,0,0,1-23.06-18,60.57,60.57,0,0,0,10-4.62c5.27-3.47,1.49-.5,9.09-6.34A98.76,98.76,0,0,1,134,166.83Z"/><path class="cls-1" d="M100.26,151.67a91.76,91.76,0,0,1-11,27s0,0,0,.08a94.41,94.41,0,0,1-10.93-27c5.24.6,8.59.88,11,.91,3.93.11,5.16-.34,7.6-.38C98.92,152,100.26,151.67,100.26,151.67Z"/><path class="cls-1" d="M48.64,137.79c2.72,2.83,12.32,8.79,19,11a92.73,92.73,0,0,1-23,17.92A93.49,93.49,0,0,1,48.64,137.79Z"/><path class="cls-1" d="M29.87,110.92a60.71,60.71,0,0,0,4.63,10c3.48,5.25.5,1.47,6.32,9.06a97.67,97.67,0,0,1-28.93,4A96.64,96.64,0,0,1,29.87,110.92Z"/><path class="cls-1" d="M27,78.3c-1,8-.78,5-.91,11-.17,2.76.35,5.5.39,7.57.28,2.05.57,3.39.57,3.39a93.12,93.12,0,0,1-27-11A94.76,94.76,0,0,1,27,78.3Z"/><path class="cls-1" d="M40.92,48.65a17.84,17.84,0,0,0-2.15,2.7,60,60,0,0,0-8.83,16.3A92.5,92.5,0,0,1,12,44.6,92.68,92.68,0,0,1,40.92,48.65Z"/><path class="cls-1" d="M67.79,29.89a64.48,64.48,0,0,0-19.08,11,97.78,97.78,0,0,1-4-28.94A97,97,0,0,1,67.79,29.89Z"/><path class="cls-1" d="M100.41,27c-5.34-.64-8.78-.87-11.15-.91-3.81-.08-5,.38-7.44.42-2,.26-3.4.57-3.4.57A93.61,93.61,0,0,1,89.26.3c.08-.11.12-.19.19-.3A95,95,0,0,1,100.41,27Z"/><path class="cls-1" d="M130,40.93c-2.67-2.79-12.25-8.78-19-11a94.22,94.22,0,0,1,23-17.92A91.79,91.79,0,0,1,130,40.93Z"/><path class="cls-1" d="M166.82,44.75a97.83,97.83,0,0,1-18,23.06,60.19,60.19,0,0,0-4.62-10c-3.51-5.23-.5-1.45-6.34-9.05A97.41,97.41,0,0,1,166.82,44.75Z"/><path class="cls-1" d="M152.61,89.42c.15-2.78-.34-5.49-.38-7.59-.3-2-.58-3.4-.58-3.4a94.29,94.29,0,0,1,27,11,93.85,93.85,0,0,1-27,11C152.69,92.4,152.46,95.42,152.61,89.42Z"/><path class="cls-2" d="M100.41,27c-5.34-.64-8.78-.87-11.15-.91V.3c.08-.11.12-.19.19-.3A95,95,0,0,1,100.41,27Z"/><path class="cls-2" d="M96.86,152.24c2.06-.27,3.4-.57,3.4-.57a91.76,91.76,0,0,1-11,27v-26C93.19,152.73,94.42,152.28,96.86,152.24Z"/><path class="cls-2" d="M89.34,146.63h-.08V32.07h.08a57.28,57.28,0,0,1,0,114.56Z"/><path class="cls-2" d="M130,137.88a98.76,98.76,0,0,1,4,29,96.78,96.78,0,0,1-23.06-18,60.57,60.57,0,0,0,10-4.62C126.19,140.75,122.41,143.72,130,137.88Z"/><path class="cls-2" d="M130,40.93c-2.67-2.79-12.25-8.78-19-11a94.22,94.22,0,0,1,23-17.92A91.79,91.79,0,0,1,130,40.93Z"/><path class="cls-2" d="M166.66,134.1a91.65,91.65,0,0,1-28.86-4c2.82-2.71,8.77-12.29,10.95-19A92.31,92.31,0,0,1,166.66,134.1Z"/><path class="cls-2" d="M144.21,57.77c-3.51-5.23-.5-1.45-6.34-9.05a97.41,97.41,0,0,1,28.95-4,97.83,97.83,0,0,1-18,23.06A60.19,60.19,0,0,0,144.21,57.77Z"/><path class="cls-2" d="M152.61,89.42c.15-2.78-.34-5.49-.38-7.59-.3-2-.58-3.4-.58-3.4a94.29,94.29,0,0,1,27,11,93.85,93.85,0,0,1-27,11C152.69,92.4,152.46,95.42,152.61,89.42Z"/><path class="cls-3" d="M140.05,89.35h-6A44.79,44.79,0,0,0,89.34,44.6l-.06-6h.06A50.77,50.77,0,0,1,140.05,89.35Z"/><path class="cls-1" d="M122.44,89.35a33.1,33.1,0,0,1-33.1,33.11h-.08a33.11,33.11,0,0,1,0-66.22h.08A33.12,33.12,0,0,1,122.44,89.35Z"/><path class="cls-2" d="M89.26,56.24v66.22a33.11,33.11,0,0,1,0-66.22Z"/></svg>