<svg id="Layer_1" data-name="Layer 1" xmlns="http://www.w3.org/2000/svg" viewBox="0 0 241.18 207.12"><defs><style>.cls-1{fill:#ffc800;}.cls-2{fill:#ffdc00;}.cls-3{fill:#fff;}.cls-4{fill:#f0f0f0;}.cls-5{fill:#96dcf0;}.cls-6{fill:#a0e6fa;}</style></defs><title>LLUVIA LIGERA</title><path class="cls-1" d="M107.2,65.32A41.88,41.88,0,1,1,65.33,23.46,41.87,41.87,0,0,1,107.2,65.32Z"/><path class="cls-1" d="M100.73,95.09c2.07-2,6.42-9,8-13.89a68.19,68.19,0,0,1,13.09,16.85A68.26,68.26,0,0,1,100.73,95.09Z"/><path class="cls-1" d="M81.09,108.81a45.31,45.31,0,0,0,7.32-3.38A49.86,49.86,0,0,0,95,100.8,71.33,71.33,0,0,1,97.94,122,70.36,70.36,0,0,1,81.09,108.81Z"/><path class="cls-1" d="M57.24,110.91c10.17,1.23,10.71.44,13.58.38,1.49-.2,2.48-.42,2.48-.42a68.33,68.33,0,0,1-8.06,19.78A69.18,69.18,0,0,1,57.24,110.91Z"/><path class="cls-1" d="M35.56,100.73c2,2.08,9,6.43,13.89,8A67.35,67.35,0,0,1,32.6,121.85,68.22,68.22,0,0,1,35.56,100.73Z"/><path class="cls-1" d="M21.84,81.09a44.48,44.48,0,0,0,3.38,7.33c2.55,3.83.36,1.07,4.63,6.62a71.51,71.51,0,0,1-21.16,2.9A70.58,70.58,0,0,1,21.84,81.09Z"/><path class="cls-1" d="M19.74,57.24c-.71,5.87-.57,3.64-.66,8.05a54.85,54.85,0,0,0,.28,5.53c.2,1.5.41,2.49.42,2.49A68.32,68.32,0,0,1,0,65.25,69.74,69.74,0,0,1,19.74,57.24Z"/><path class="cls-1" d="M29.92,35.57a12,12,0,0,0-1.57,2,43.92,43.92,0,0,0-6.46,11.93A67.48,67.48,0,0,1,8.79,32.6,68.12,68.12,0,0,1,29.92,35.57Z"/><path class="cls-1" d="M49.56,21.84a47.58,47.58,0,0,0-14,8A71.46,71.46,0,0,1,32.71,8.7,71.3,71.3,0,0,1,49.56,21.84Z"/><path class="cls-1" d="M73.41,19.74c-10.18-1.22-10.71-.44-13.58-.37-1.5.2-2.48.41-2.48.41A67.63,67.63,0,0,1,65.4,0,70,70,0,0,1,73.41,19.74Z"/><path class="cls-1" d="M95.08,29.93c-2-2.06-9-6.43-13.88-8A68.19,68.19,0,0,1,98,8.79,68.31,68.31,0,0,1,95.08,29.93Z"/><path class="cls-1" d="M108.81,49.57a44.31,44.31,0,0,0-3.39-7.33c-2.55-3.84-.36-1.07-4.62-6.62A71,71,0,0,1,122,32.72,70.88,70.88,0,0,1,108.81,49.57Z"/><path class="cls-1" d="M110.91,73.42c.7-5.87.56-3.65.66-8.06a54.38,54.38,0,0,0-.29-5.52c-.19-1.5-.41-2.49-.41-2.49a68.38,68.38,0,0,1,19.77,8.06A69.69,69.69,0,0,1,110.91,73.42Z"/><path class="cls-1" d="M107.19,65.32A41.85,41.85,0,0,1,65.32,107.2h-.06a41.88,41.88,0,0,1,0-83.76h.06A41.87,41.87,0,0,1,107.19,65.32Z"/><path class="cls-1" d="M121.85,98a67.28,67.28,0,0,1-21.11-3c2.07-2,6.42-9,8-13.88A68,68,0,0,1,121.85,98Z"/><path class="cls-1" d="M98,122a70.3,70.3,0,0,1-16.86-13.15,44.31,44.31,0,0,0,7.31-3.37c3.85-2.55,1.09-.37,6.65-4.64A72.29,72.29,0,0,1,98,122Z"/><path class="cls-1" d="M73.3,110.87a67.17,67.17,0,0,1-8,19.72s0,0,0,.06a68.83,68.83,0,0,1-8-19.74c3.82.44,6.28.63,8,.67,2.87.08,3.77-.25,5.55-.28C72.32,111.1,73.3,110.87,73.3,110.87Z"/><path class="cls-1" d="M35.56,100.73c2,2.08,9,6.43,13.89,8A67.35,67.35,0,0,1,32.6,121.85,68.22,68.22,0,0,1,35.56,100.73Z"/><path class="cls-1" d="M21.84,81.09a44.48,44.48,0,0,0,3.38,7.33c2.55,3.83.36,1.07,4.63,6.62a71.51,71.51,0,0,1-21.16,2.9A70.58,70.58,0,0,1,21.84,81.09Z"/><path class="cls-1" d="M19.74,57.24c-.71,5.87-.57,3.64-.66,8.05a54.85,54.85,0,0,0,.28,5.53c.2,1.5.41,2.49.42,2.49A68.32,68.32,0,0,1,0,65.25,69.74,69.74,0,0,1,19.74,57.24Z"/><path class="cls-1" d="M29.92,35.57a12,12,0,0,0-1.57,2,43.92,43.92,0,0,0-6.46,11.93A67.48,67.48,0,0,1,8.79,32.6,68.12,68.12,0,0,1,29.92,35.57Z"/><path class="cls-1" d="M49.56,21.84a47.58,47.58,0,0,0-14,8A71.46,71.46,0,0,1,32.71,8.7,71.3,71.3,0,0,1,49.56,21.84Z"/><path class="cls-1" d="M73.41,19.73c-3.91-.47-6.42-.64-8.15-.67-2.8-.06-3.69.28-5.45.31-1.48.19-2.48.42-2.48.42A68.38,68.38,0,0,1,65.26.22c.06-.09.08-.14.14-.22A69.58,69.58,0,0,1,73.41,19.73Z"/><path class="cls-1" d="M95.07,29.93c-1.95-2.05-9-6.43-13.87-8A69.21,69.21,0,0,1,98,8.79,67.09,67.09,0,0,1,95.07,29.93Z"/><path class="cls-1" d="M122,32.72a71.62,71.62,0,0,1-13.15,16.85,43.74,43.74,0,0,0-3.38-7.33c-2.57-3.83-.36-1.07-4.64-6.62A70.79,70.79,0,0,1,122,32.72Z"/><path class="cls-1" d="M111.57,65.37c.12-2-.25-4-.28-5.55-.22-1.48-.42-2.49-.42-2.49a69.12,69.12,0,0,1,19.77,8.07,69.12,69.12,0,0,1-19.74,8C111.63,67.55,111.46,69.76,111.57,65.37Z"/><path class="cls-2" d="M73.41,19.73c-3.91-.47-6.42-.64-8.15-.67V.22c.06-.09.08-.14.14-.22A69.58,69.58,0,0,1,73.41,19.73Z"/><path class="cls-2" d="M70.81,111.3c1.51-.2,2.49-.43,2.49-.43a67.17,67.17,0,0,1-8,19.72v-19C68.13,111.66,69,111.33,70.81,111.3Z"/><path class="cls-2" d="M65.32,107.2h-.06V23.44h.06a41.88,41.88,0,0,1,0,83.76Z"/><path class="cls-2" d="M95.05,100.8A72.29,72.29,0,0,1,98,122a70.3,70.3,0,0,1-16.86-13.15,44.31,44.31,0,0,0,7.31-3.37C92.25,102.89,89.49,105.07,95.05,100.8Z"/><path class="cls-2" d="M95.07,29.93c-1.95-2.05-9-6.43-13.87-8A69.21,69.21,0,0,1,98,8.79,67.09,67.09,0,0,1,95.07,29.93Z"/><path class="cls-2" d="M121.85,98a67.28,67.28,0,0,1-21.11-3c2.07-2,6.42-9,8-13.88A68,68,0,0,1,121.85,98Z"/><path class="cls-2" d="M105.43,42.24c-2.57-3.83-.36-1.07-4.64-6.62A70.79,70.79,0,0,1,122,32.72a71.62,71.62,0,0,1-13.15,16.85A43.74,43.74,0,0,0,105.43,42.24Z"/><path class="cls-2" d="M111.57,65.37c.12-2-.25-4-.28-5.55-.22-1.48-.42-2.49-.42-2.49a69.12,69.12,0,0,1,19.77,8.07,69.12,69.12,0,0,1-19.74,8C111.63,67.55,111.46,69.76,111.57,65.37Z"/><path class="cls-3" d="M102.59,65.32H97.84A32.56,32.56,0,0,0,65.32,32.8l0-4.75h0A37.31,37.31,0,0,1,102.59,65.32Z"/><path class="cls-4" d="M241.18,124.16a36.55,36.55,0,0,1-36.53,36.52H51.86a31.73,31.73,0,1,1,0-63.45,31.35,31.35,0,0,1,15.48,4,19.68,19.68,0,0,1-1.2-6.63A19.33,19.33,0,0,1,101,83.07a48.65,48.65,0,0,1,45.19-45.18c1.1-.1,2.2-.14,3.33-.14a48.73,48.73,0,0,1,48.71,48.72c0,.61-.06,1.2-.09,1.8a37.31,37.31,0,0,1,6.56-.6A36.52,36.52,0,0,1,241.18,124.16Z"/><path class="cls-3" d="M241.18,124.16a36.55,36.55,0,0,1-36.53,36.52H146.14V37.89c1.1-.1,2.2-.14,3.33-.14a48.73,48.73,0,0,1,48.71,48.72c0,.61-.06,1.2-.09,1.8a37.31,37.31,0,0,1,6.56-.6A36.52,36.52,0,0,1,241.18,124.16Z"/><path class="cls-5" d="M192.09,184.18a23,23,0,0,1-46,0c0-12.7,23-45.19,23-45.19S192.09,171.48,192.09,184.18Z"/><path class="cls-6" d="M192.09,184.18a23,23,0,0,1-23,22.94V139S192.09,171.48,192.09,184.18Z"/><path class="cls-3" d="M169.12,200.78v-3.16a13.48,13.48,0,0,0,13.47-13.44h3.16A16.64,16.64,0,0,1,169.12,200.78Z"/><path class="cls-5" d="M132.11,161.41a11.36,11.36,0,0,1-22.71,0c0-6.28,11.35-22.33,11.35-22.33S132.11,155.13,132.11,161.41Z"/><path class="cls-6" d="M132.11,161.41a11.34,11.34,0,0,1-11.36,11.33V139.08S132.11,155.13,132.11,161.41Z"/></svg>