<svg id="Layer_1" data-name="Layer 1" xmlns="http://www.w3.org/2000/svg" viewBox="0 0 233.47 129.82"><defs><style>.cls-1{fill:#f0f0f0;}.cls-2{fill:#fff;}</style></defs><title>NUBLADO</title><path class="cls-1" d="M233.47,91.25a38.56,38.56,0,0,1-38.58,38.57H33.52a33.51,33.51,0,1,1,0-67,33.18,33.18,0,0,1,16.36,4.27A20.34,20.34,0,0,1,69.06,39.67a20.32,20.32,0,0,1,16.31,8.19A51.38,51.38,0,0,1,133.1.14c1.16-.1,2.32-.14,3.52-.14a51.46,51.46,0,0,1,51.44,51.45c0,.64-.06,1.26-.1,1.91a38.47,38.47,0,0,1,45.51,37.89Z"/><path class="cls-2" d="M233.47,91.25a38.56,38.56,0,0,1-38.58,38.57H133.1V.14c1.16-.1,2.32-.14,3.52-.14a51.46,51.46,0,0,1,51.44,51.45c0,.64-.06,1.26-.1,1.91a38.47,38.47,0,0,1,45.51,37.89Z"/></svg>