<svg id="Layer_1" data-name="Layer 1" xmlns="http://www.w3.org/2000/svg" viewBox="0 0 358.77 274.87"><defs><style>.cls-1{fill:#f0f0f0;}.cls-2{fill:#fff;}.cls-3{fill:#96dcf0;}.cls-4{fill:#a0e6fa;}</style></defs><title>LLUVIA</title><path class="cls-1" d="M358.77,140.22a59.27,59.27,0,0,1-59.28,59.27h-248a51.49,51.49,0,1,1,0-103,50.87,50.87,0,0,1,25.12,6.57,32.05,32.05,0,0,1-1.93-10.76A31.37,31.37,0,0,1,131.2,73.55,78.94,78.94,0,0,1,204.54.21C206.32.06,208.1,0,210,0a79.08,79.08,0,0,1,79,79.06c0,1-.1,1.94-.15,2.93a59.15,59.15,0,0,1,69.93,58.23Z"/><path class="cls-2" d="M358.77,140.22a59.27,59.27,0,0,1-59.28,59.27h-95V.21C206.32.06,208.1,0,210,0a79.08,79.08,0,0,1,79,79.06c0,1-.1,1.94-.15,2.93a59.15,59.15,0,0,1,69.93,58.23Z"/><path class="cls-3" d="M279.11,237.63a37.29,37.29,0,0,1-74.57,0c0-20.62,37.29-73.33,37.29-73.33S279.11,217,279.11,237.63Z"/><path class="cls-4" d="M279.11,237.63a37.28,37.28,0,0,1-37.28,37.24V164.3S279.11,217,279.11,237.63Z"/><path class="cls-2" d="M241.83,264.58v-5.14a21.85,21.85,0,0,0,21.85-21.81h5.14A27,27,0,0,1,241.83,264.58Z"/><path class="cls-3" d="M181.76,200.68a18.43,18.43,0,0,1-36.85,0c0-10.18,18.43-36.25,18.43-36.25S181.76,190.5,181.76,200.68Z"/><path class="cls-4" d="M181.76,200.68a18.42,18.42,0,0,1-18.42,18.41V164.43S181.76,190.5,181.76,200.68Z"/></svg>