<svg id="Layer_1" data-name="Layer 1" xmlns="http://www.w3.org/2000/svg" viewBox="0 0 235.48 156.89"><defs><style>.cls-1{fill:#ffc800;}.cls-2{fill:#ffdc00;}.cls-3{fill:#fff;}.cls-4{fill:#f0f0f0;}</style></defs><title>CIELO NUVOSO</title><path class="cls-1" d="M104.66,63.79A40.88,40.88,0,1,1,63.78,22.9,40.89,40.89,0,0,1,104.66,63.79Z"/><path class="cls-1" d="M98.35,92.84c2-1.93,6.28-8.78,7.84-13.56A66.39,66.39,0,0,1,119,95.74,66.45,66.45,0,0,1,98.35,92.84Z"/><path class="cls-1" d="M79.17,106.25a42.72,42.72,0,0,0,7.15-3.31c3.74-2.49,1.05-.35,6.47-4.51a69.84,69.84,0,0,1,2.83,20.66A68.85,68.85,0,0,1,79.17,106.25Z"/><path class="cls-1" d="M55.88,108.3c9.94,1.19,10.47.42,13.26.37,1.47-.2,2.43-.41,2.43-.41a66.79,66.79,0,0,1-7.87,19.31A67.91,67.91,0,0,1,55.88,108.3Z"/><path class="cls-1" d="M34.72,98.36c1.94,2,8.8,6.28,13.56,7.84A66.21,66.21,0,0,1,31.83,119,66.44,66.44,0,0,1,34.72,98.36Z"/><path class="cls-1" d="M21.32,79.18a42.72,42.72,0,0,0,3.31,7.15c2.49,3.75.35,1,4.51,6.47A69.63,69.63,0,0,1,8.48,95.64,68.79,68.79,0,0,1,21.32,79.18Z"/><path class="cls-1" d="M19.27,55.89c-.69,5.74-.55,3.56-.65,7.86-.12,2,.25,3.93.28,5.4.2,1.46.41,2.43.41,2.43A66.55,66.55,0,0,1,0,63.71,68.2,68.2,0,0,1,19.27,55.89Z"/><path class="cls-1" d="M29.21,34.73a11.94,11.94,0,0,0-1.53,1.93,42.59,42.59,0,0,0-6.31,11.63A66,66,0,0,1,8.58,31.84,66,66,0,0,1,29.21,34.73Z"/><path class="cls-1" d="M48.39,21.33a45.94,45.94,0,0,0-13.62,7.82A70,70,0,0,1,31.93,8.5,68.88,68.88,0,0,1,48.39,21.33Z"/><path class="cls-1" d="M71.68,19.28c-10-1.2-10.47-.43-13.27-.37-1.46.2-2.42.4-2.42.4A66.26,66.26,0,0,1,63.86,0,68.27,68.27,0,0,1,71.68,19.28Z"/><path class="cls-1" d="M92.84,29.22c-1.92-2-8.76-6.27-13.56-7.84A66.39,66.39,0,0,1,95.73,8.59,66.74,66.74,0,0,1,92.84,29.22Z"/><path class="cls-1" d="M106.24,48.4a43.75,43.75,0,0,0-3.3-7.16,48.7,48.7,0,0,0-4.52-6.46,69.61,69.61,0,0,1,20.65-2.84A69,69,0,0,1,106.24,48.4Z"/><path class="cls-1" d="M108.28,71.68c.7-5.73.56-3.55.65-7.86a52.83,52.83,0,0,0-.27-5.4c-.2-1.46-.4-2.43-.41-2.43a67.08,67.08,0,0,1,19.31,7.88A67.86,67.86,0,0,1,108.28,71.68Z"/><path class="cls-1" d="M104.66,63.78a40.86,40.86,0,0,1-40.89,40.88h-.05a40.88,40.88,0,0,1,0-81.76h.05A40.88,40.88,0,0,1,104.66,63.78Z"/><path class="cls-1" d="M119,95.73a65.76,65.76,0,0,1-20.61-2.89c2-1.94,6.27-8.78,7.82-13.55A65.81,65.81,0,0,1,119,95.73Z"/><path class="cls-1" d="M95.64,119.09a68.58,68.58,0,0,1-16.46-12.84,42.92,42.92,0,0,0,7.13-3.3,45.87,45.87,0,0,0,6.5-4.52A70.6,70.6,0,0,1,95.64,119.09Z"/><path class="cls-1" d="M71.57,108.26a65.67,65.67,0,0,1-7.85,19.25s0,0,0,0a67.49,67.49,0,0,1-7.8-19.27c3.74.44,6.13.63,7.83.65,2.81.09,3.68-.24,5.42-.27C70.61,108.48,71.57,108.26,71.57,108.26Z"/><path class="cls-1" d="M34.72,98.36c1.94,2,8.8,6.28,13.56,7.84A66.21,66.21,0,0,1,31.83,119,66.44,66.44,0,0,1,34.72,98.36Z"/><path class="cls-1" d="M21.32,79.18a42.72,42.72,0,0,0,3.31,7.15c2.49,3.75.35,1,4.51,6.47A69.63,69.63,0,0,1,8.48,95.64,68.79,68.79,0,0,1,21.32,79.18Z"/><path class="cls-1" d="M19.27,55.89c-.69,5.74-.55,3.56-.65,7.86-.12,2,.25,3.93.28,5.4.2,1.46.41,2.43.41,2.43A66.55,66.55,0,0,1,0,63.71,68.2,68.2,0,0,1,19.27,55.89Z"/><path class="cls-1" d="M29.21,34.73a11.94,11.94,0,0,0-1.53,1.93,42.59,42.59,0,0,0-6.31,11.63A66,66,0,0,1,8.58,31.84,66,66,0,0,1,29.21,34.73Z"/><path class="cls-1" d="M48.39,21.33a45.94,45.94,0,0,0-13.62,7.82A70,70,0,0,1,31.93,8.5,68.88,68.88,0,0,1,48.39,21.33Z"/><path class="cls-1" d="M71.68,19.27a76.93,76.93,0,0,0-8-.65c-2.73-.06-3.6.26-5.32.29-1.45.2-2.42.42-2.42.42A66.55,66.55,0,0,1,63.72.22,1,1,0,0,1,63.86,0,68,68,0,0,1,71.68,19.27Z"/><path class="cls-1" d="M92.83,29.22c-1.91-2-8.75-6.27-13.55-7.85A67.35,67.35,0,0,1,95.72,8.59,65.85,65.85,0,0,1,92.83,29.22Z"/><path class="cls-1" d="M119.08,31.94a69.9,69.9,0,0,1-12.84,16.47,41.87,41.87,0,0,0-3.3-7.17c-2.5-3.74-.35-1-4.52-6.47A69.84,69.84,0,0,1,119.08,31.94Z"/><path class="cls-1" d="M108.94,63.84c.11-2-.25-3.93-.27-5.43-.22-1.45-.41-2.42-.41-2.42a67.41,67.41,0,0,1,19.3,7.87,67.11,67.11,0,0,1-19.28,7.82C109,66,108.83,68.11,108.94,63.84Z"/><path class="cls-2" d="M71.68,19.27a76.93,76.93,0,0,0-8-.65V.22A1,1,0,0,1,63.86,0,68,68,0,0,1,71.68,19.27Z"/><path class="cls-2" d="M69.14,108.67c1.47-.19,2.43-.41,2.43-.41a65.67,65.67,0,0,1-7.85,19.25V108.94C66.53,109,67.4,108.7,69.14,108.67Z"/><path class="cls-2" d="M63.77,104.66h-.05V22.9h.05a40.88,40.88,0,1,1,0,81.76Z"/><path class="cls-2" d="M92.81,98.43a70.6,70.6,0,0,1,2.83,20.66,68.58,68.58,0,0,1-16.46-12.84,42.92,42.92,0,0,0,7.13-3.3A45.87,45.87,0,0,0,92.81,98.43Z"/><path class="cls-2" d="M92.83,29.22c-1.91-2-8.75-6.27-13.55-7.85A67.35,67.35,0,0,1,95.72,8.59,65.85,65.85,0,0,1,92.83,29.22Z"/><path class="cls-2" d="M119,95.73a65.76,65.76,0,0,1-20.61-2.89c2-1.94,6.27-8.78,7.82-13.55A65.81,65.81,0,0,1,119,95.73Z"/><path class="cls-2" d="M102.94,41.24c-2.5-3.74-.35-1-4.52-6.47a69.84,69.84,0,0,1,20.66-2.83,69.9,69.9,0,0,1-12.84,16.47A41.87,41.87,0,0,0,102.94,41.24Z"/><path class="cls-2" d="M108.94,63.84c.11-2-.25-3.93-.27-5.43-.22-1.45-.41-2.42-.41-2.42a67.41,67.41,0,0,1,19.3,7.87,67.11,67.11,0,0,1-19.28,7.82C109,66,108.83,68.11,108.94,63.84Z"/><path class="cls-3" d="M100.16,63.78H95.52A31.78,31.78,0,0,0,63.77,32l0-4.64h0A36.43,36.43,0,0,1,100.16,63.78Z"/><path class="cls-4" d="M235.48,121.23a35.66,35.66,0,0,1-35.67,35.66H50.63a31,31,0,1,1,15.12-58A18.86,18.86,0,0,1,98.57,81.12,47.51,47.51,0,0,1,142.7,37c1.06-.09,2.14-.12,3.24-.12a47.58,47.58,0,0,1,47.57,47.56c0,.6-.07,1.16-.1,1.77a34.8,34.8,0,0,1,6.4-.61A35.67,35.67,0,0,1,235.48,121.23Z"/><path class="cls-3" d="M235.48,121.23a35.66,35.66,0,0,1-35.67,35.66H142.7V37c1.06-.09,2.14-.12,3.24-.12a47.58,47.58,0,0,1,47.57,47.56c0,.6-.07,1.16-.1,1.77a34.8,34.8,0,0,1,6.4-.61A35.67,35.67,0,0,1,235.48,121.23Z"/></svg>